<svg width="60" height="60" viewBox="0 0 60 60" fill="none" xmlns="http://www.w3.org/2000/svg">
<path fill-rule="evenodd" clip-rule="evenodd" d="M42 54C50.2843 54 57 47.2843 57 39C57 30.7157 50.2843 24 42 24C33.7157 24 27 30.7157 27 39C27 47.2843 33.7157 54 42 54Z" fill="#FF91A0"/>
<g clip-path="url(#clip0)">
<path d="M44.9999 24.0001C45.0216 21.4926 44.4143 19.0197 43.2336 16.8075C42.0529 14.5953 40.3365 12.7144 38.2413 11.3368C36.1461 9.95913 33.7389 9.12875 31.2399 8.92154C28.7409 8.71434 26.2299 9.13692 23.9364 10.1507C21.6428 11.1644 19.6401 12.7369 18.1112 14.7245C16.5822 16.712 15.576 19.0511 15.1844 21.5279C14.7929 24.0047 15.0285 26.5401 15.8697 28.9024C16.7109 31.2646 18.1309 33.3783 19.9999 35.0501V38.2001V43.8667H23.8832C24.1228 45.3115 24.8675 46.6244 25.9846 47.5714C27.1017 48.5185 28.5187 49.0383 29.9832 49.0383C31.4477 49.0383 32.8647 48.5185 33.9818 47.5714C35.0989 46.6244 35.8436 45.3115 36.0832 43.8667H40.5999V37.6334V34.9501C43.4183 32.0006 44.9939 28.0797 44.9999 24.0001ZM17.4999 24.0001C17.4999 20.6849 18.8168 17.5055 21.161 15.1612C23.5052 12.817 26.6846 11.5001 29.9999 11.5001C33.3151 11.5001 36.4945 12.817 38.8387 15.1612C41.1829 17.5055 42.4999 20.6849 42.4999 24.0001C42.5053 25.7671 42.1555 27.5171 41.4712 29.1463C40.7869 30.7754 39.7821 32.2503 38.5165 33.4834L38.1499 33.8334V35.6834H22.4165V34.0001L21.6665 33.1834C20.3658 32.0313 19.3225 30.6181 18.6046 29.0358C17.8867 27.4534 17.5102 25.7376 17.4999 24.0001ZM29.9999 46.5167C29.2036 46.5163 28.4289 46.2578 27.7919 45.7801C27.1549 45.3023 26.6899 44.631 26.4665 43.8667H33.5499C33.3209 44.631 32.8521 45.3012 32.2128 45.7785C31.5735 46.2557 30.7976 46.5145 29.9999 46.5167ZM22.4665 41.3667V38.2001H38.0999V41.3667H22.4665Z" fill="#03314B"/>
<path d="M37.1165 25.0834H39.6165C39.6242 23.6895 39.3506 22.3083 38.8123 21.0225C38.2739 19.7367 37.4817 18.5727 36.4832 17.6001C35.5001 16.6131 34.3311 15.8309 33.0437 15.2988C31.7563 14.7667 30.3762 14.4952 28.9832 14.5001V17.0001C31.1373 16.9981 33.2046 17.849 34.7332 19.3667C35.4882 20.115 36.0875 21.0055 36.4966 21.9867C36.9057 22.9679 37.1164 24.0204 37.1165 25.0834Z" fill="#03314B"/>
<path d="M11.7345 8.99943L10.2047 10.9767L14.726 14.4749L16.2558 12.4977L11.7345 8.99943Z" fill="#03314B"/>
<path d="M13.8167 17.0333H10V19.5333H13.8167V17.0333Z" fill="#03314B"/>
<path d="M48.2575 8.99685L43.7362 12.4951L45.266 14.4724L49.7873 10.9741L48.2575 8.99685Z" fill="#03314B"/>
<path d="M49.9999 17.0333H46.1833V19.5333H49.9999V17.0333Z" fill="#03314B"/>
</g>
<defs>
<clipPath id="clip0">
<rect width="40" height="40" fill="white" transform="translate(10 9)"/>
</clipPath>
</defs>
</svg>
