<svg width="60" height="60" viewBox="0 0 60 60" fill="none" xmlns="http://www.w3.org/2000/svg">
<path fill-rule="evenodd" clip-rule="evenodd" d="M45 57C53.2843 57 60 50.2843 60 42C60 33.7157 53.2843 27 45 27C36.7157 27 30 33.7157 30 42C30 50.2843 36.7157 57 45 57Z" fill="#FF91A0"/>
<path d="M24.3333 20.3333H17V22.3333H24.3333V20.3333Z" fill="#03314B"/>
<path fill-rule="evenodd" clip-rule="evenodd" d="M9.66667 21.5H13.3333L13.8333 22.3333H16L12 14.5H11L7 22.3333H9.16667L9.66667 21.5ZM11.5 17.8333L12.3333 19.5H10.6667L11.5 17.8333Z" fill="#03314B"/>
<path fill-rule="evenodd" clip-rule="evenodd" d="M49.8333 30.3333V25.5C49.8333 22.0963 48.4813 18.8321 46.0745 16.4254C43.6678 14.0187 40.4036 12.6666 37 12.6666C35.0874 12.6732 33.2033 13.13 31.5 14V7.66663H0V42.8333H31.5V16.1666C33.1596 15.1682 35.0633 14.649 37 14.6666C38.4233 14.6644 39.833 14.9431 41.1483 15.4868C42.4637 16.0304 43.6588 16.8283 44.6652 17.8347C45.6716 18.8411 46.4695 20.0363 47.0132 21.3516C47.5568 22.667 47.8355 24.0767 47.8333 25.5V30.3333H42.5V43H49.5C50.3317 43 51.1553 42.8361 51.9237 42.5179C52.6921 42.1996 53.3902 41.7331 53.9783 41.145C54.5664 40.5569 55.033 39.8587 55.3512 39.0903C55.6695 38.3219 55.8333 37.4983 55.8333 36.6666C55.7967 35.0548 55.1625 33.5142 54.0537 32.3438C52.9449 31.1734 51.4408 30.4569 49.8333 30.3333ZM24.1667 41C23.0174 41 21.9152 40.5434 21.1025 39.7308C20.2899 38.9181 19.8333 37.8159 19.8333 36.6666C19.8333 35.5174 20.2899 34.4152 21.1025 33.6025C21.9152 32.7898 23.0174 32.3333 24.1667 32.3333V41ZM29.1667 41H26.1667V32.3333H29.1667V41ZM29.3333 30.3333H26.1667V25.6666C26.1576 24.2423 26.4331 22.8305 26.9769 21.5139C27.5206 20.1974 28.3218 19.0028 29.3333 18V30.3333ZM29.5 15.1666C27.8791 16.354 26.5648 17.9109 25.6663 19.7081C24.7677 21.5052 24.3107 23.4908 24.3333 25.5V26.6666H7V28.6666H24.3333V30.3333C23.2424 30.336 22.1722 30.6312 21.2341 31.1882C20.2961 31.7451 19.5246 32.5434 19 33.5H7V35.5H18.1667C18.1667 35.8333 18 36.3333 18 36.6666C18.0184 38.2641 18.6098 39.8019 19.6667 41H2V9.66663H29.5V15.1666ZM47.8333 41H44.5V32.3333H47.8333V41ZM49.8333 40.8333V32.3333C50.9044 32.4305 51.8978 32.9333 52.6104 33.7388C53.323 34.5444 53.7008 35.5917 53.6667 36.6666C53.6944 37.7231 53.3097 38.7488 52.5942 39.5266C51.8787 40.3044 50.8884 40.773 49.8333 40.8333Z" fill="#03314B"/>
</svg>
