<svg width="60" height="60" viewBox="0 0 60 60" fill="none" xmlns="http://www.w3.org/2000/svg">
<path fill-rule="evenodd" clip-rule="evenodd" d="M42 54C50.2843 54 57 47.2843 57 39C57 30.7157 50.2843 24 42 24C33.7157 24 27 30.7157 27 39C27 47.2843 33.7157 54 42 54Z" fill="#FF91A0"/>
<path fill-rule="evenodd" clip-rule="evenodd" d="M29.5834 36.6667C31.7935 36.6667 33.9131 35.7887 35.4759 34.2259C37.0387 32.6631 37.9167 30.5435 37.9167 28.3333V18.3333C37.9167 16.1232 37.0387 14.0036 35.4759 12.4408C33.9131 10.878 31.7935 10 29.5834 10C27.3732 10 25.2536 10.878 23.6908 12.4408C22.128 14.0036 21.25 16.1232 21.25 18.3333V28.3333C21.25 30.5435 22.128 32.6631 23.6908 34.2259C25.2536 35.7887 27.3732 36.6667 29.5834 36.6667ZM23.75 18.3333C23.75 16.7862 24.3646 15.3025 25.4586 14.2085C26.5525 13.1146 28.0363 12.5 29.5834 12.5C31.1304 12.5 32.6142 13.1146 33.7081 14.2085C34.8021 15.3025 35.4167 16.7862 35.4167 18.3333V28.3333C35.4167 29.8804 34.8021 31.3642 33.7081 32.4581C32.6142 33.5521 31.1304 34.1667 29.5834 34.1667C28.0363 34.1667 26.5525 33.5521 25.4586 32.4581C24.3646 31.3642 23.75 29.8804 23.75 28.3333V18.3333Z" fill="#03314B"/>
<path fill-rule="evenodd" clip-rule="evenodd" d="M41.6667 22.9167V28.75C41.6667 31.9547 40.3936 35.0281 38.1276 37.2942C35.8615 39.5603 32.7881 40.8333 29.5834 40.8333C26.3787 40.8333 23.3052 39.5603 21.0391 37.2942C18.7731 35.0281 17.5 31.9547 17.5 28.75V22.9167H15V28.75C14.9942 32.4084 16.3606 35.936 18.8291 38.636C21.2977 41.336 24.6891 43.0121 28.3334 43.3333V47.5H21.25V50H37.9167V47.5H30.8334V43.3333C34.4662 43.0132 37.8481 41.3465 40.3151 38.6606C42.782 35.9747 44.1558 32.4636 44.1667 28.8167V22.9167H41.6667Z" fill="#03314B"/>
<path d="M32.9167 19.5833H26.25V22.0833H32.9167V19.5833Z" fill="#03314B"/>
<path d="M32.9167 24.5833H26.25V27.0833H32.9167V24.5833Z" fill="#03314B"/>
</svg>
